<?xml version="1.0" encoding="UTF-8" standalone="no"?>
<!-- Created with Inkscape (http://www.inkscape.org/) -->
<svg xmlns:rdf="http://www.w3.org/1999/02/22-rdf-syntax-ns#" xmlns="http://www.w3.org/2000/svg" height="100" width="100" version="1.1" xmlns:cc="http://creativecommons.org/ns#" xmlns:dc="http://purl.org/dc/elements/1.1/">
<title>Chtaline</title>
<metadata>
<rdf:RDF>
<cc:Work rdf:about="">
<dc:format>image/svg+xml</dc:format>
<dc:type rdf:resource="http://purl.org/dc/dcmitype/StillImage"/>
<dc:title>Chtaline</dc:title>
<dc:date>29/11/2013</dc:date>
<dc:creator>
<cc:Agent>
<dc:title>Romain &apos;MicroJoe&apos; Porte</dc:title>
</cc:Agent>
</dc:creator>
<dc:rights>
<cc:Agent>
<dc:title/>
</cc:Agent>
</dc:rights>
<cc:license rdf:resource="http://creativecommons.org/licenses/by-nc-sa/3.0/"/>
</cc:Work>
<cc:License rdf:about="http://creativecommons.org/licenses/by-nc-sa/3.0/">
<cc:permits rdf:resource="http://creativecommons.org/ns#Reproduction"/>
<cc:permits rdf:resource="http://creativecommons.org/ns#Distribution"/>
<cc:requires rdf:resource="http://creativecommons.org/ns#Notice"/>
<cc:requires rdf:resource="http://creativecommons.org/ns#Attribution"/>
<cc:prohibits rdf:resource="http://creativecommons.org/ns#CommercialUse"/>
<cc:permits rdf:resource="http://creativecommons.org/ns#DerivativeWorks"/>
<cc:requires rdf:resource="http://creativecommons.org/ns#ShareAlike"/>
</cc:License>
</rdf:RDF>
</metadata>
<rect height="100" width="100" y="0" x="0" fill="#2fa4e7"/>
<g transform="translate(0,-952.36218)">
<path d="M-0.88036,1010.1c6.0471-7,13.156-14.18,19.523-17.67-4.7643-45.968,1.8497-49.691,22.303-15.678,8.0999,0.88835,15.782,1.7852,26.278-0.22083,29.957-30.259,26.91-12.845,14.795,17.666,1.608,19.936,3.3593,40.273-9.6074,60.026l-76.158,3.0754z" stroke-miterlimit="4" stroke-width="0" fill="#FFF"/>
</g>
<g transform="translate(0,-952.36218)">
<g stroke-linejoin="miter" transform="matrix(0.21860222,0,0,0.21860222,-3.4388261,948.52906)" stroke="#000" stroke-linecap="round" stroke-miterlimit="4" stroke-dasharray="none" stroke-width="19.75734739" fill="none">
<path d="M216.36,233.96c2.49,87.2-131.43,126.31-178.67-11.62,44.244-48.52,133.86-49.44,178.67,11.62z"/>
<path d="m270.58,236.82c-2.4889,87.193,150.72,144.87,171.53-0.1923-44.244-48.521-123.86-44.44-171.53,0.1923z"/>
<path d="m270.51,237.42c-9.8646-3.2757-42.608-1.9575-54.222,0.82737"/>
</g>
</g>
</svg>
